<?xml version="1.0" standalone="no"?>
<!DOCTYPE svg PUBLIC "-//W3C//DTD SVG 20010904//EN"
 "http://www.w3.org/TR/2001/REC-SVG-20010904/DTD/svg10.dtd">
<svg version="1.0" xmlns="http://www.w3.org/2000/svg"
 width="256.000000pt" height="256.000000pt" viewBox="0 0 256.000000 256.000000"
 preserveAspectRatio="xMidYMid meet">
<metadata>
Created by potrace 1.11, written by Peter Selinger 2001-2013
</metadata>
<g transform="translate(0.000000,256.000000) scale(0.100000,-0.100000)"
fill="#000000" stroke="none">
<path d="M1178 2525 c-2 -2 -30 -5 -63 -9 -141 -15 -335 -80 -466 -157 -349
-204 -570 -543 -619 -949 -7 -66 -5 -254 5 -300 2 -14 7 -41 10 -60 14 -89 59
-219 112 -325 163 -325 483 -576 838 -656 74 -16 74 -16 155 -25 116 -12 207
-9 350 11 64 8 200 49 282 85 395 170 674 526 742 948 18 109 18 300 -1 401
-46 256 -164 482 -348 666 -203 204 -437 320 -723 361 -76 10 -265 16 -274 9z
m282 -174 c542 -91 933 -562 914 -1103 -18 -535 -428 -979 -964 -1043 -548
-66 -1077 305 -1194 836 -26 117 -26 119 -27 224 -1 130 8 201 38 305 154 534
688 873 1233 781z"/>
<path d="M1182 1926 c-23 -8 -54 -21 -67 -30 -13 -9 -39 -16 -57 -16 -46 0
-80 -20 -98 -55 -13 -26 -15 -101 -15 -510 l1 -480 29 -59 c35 -74 103 -141
175 -174 80 -37 193 -37 272 0 75 35 138 94 174 165 l29 58 2 493 3 492 -28
30 c-18 21 -40 32 -67 36 -22 3 -67 17 -100 32 -73 31 -187 39 -253 18z"/>
<path d="M443 1767 c-12 -19 -10 -177 1 -186 6 -4 52 -7 101 -7 l90 1 0 100 0
100 -92 2 c-64 2 -94 -1 -100 -10z"/>
<path d="M675 1772 c-11 -12 -5 -180 8 -190 6 -5 53 -9 102 -8 l90 2 0 99 0
100 -97 1 c-54 1 -100 -1 -103 -4z"/>
<path d="M1704 1772 c-11 -8 -12 -171 -2 -188 6 -9 145 -13 189 -5 4 1 6 45 5
99 l-1 97 -91 2 c-50 0 -95 -2 -100 -5z"/>
<path d="M1936 1764 c-11 -28 -5 -182 7 -186 10 -4 146 -3 184 1 8 1 11 30 10
99 l-2 97 -97 2 c-75 1 -98 -1 -102 -13z"/>
<path d="M470 1540 l-35 -5 -1 -90 c0 -49 3 -94 7 -100 6 -8 111 -11 187 -6 9
1 12 28 12 101 0 55 -3 100 -7 101 -54 3 -135 3 -163 -1z"/>
<path d="M704 1540 l-29 -5 -3 -89 c-2 -48 1 -93 7 -99 10 -13 169 -16 188 -4
14 9 13 186 -1 194 -12 8 -121 10 -162 3z"/>
<path d="M1735 1540 l-40 -5 0 -93 c-1 -51 3 -96 9 -99 13 -8 171 -8 184 1 14
8 14 184 0 192 -14 9 -99 11 -153 4z"/>
<path d="M1958 1540 c-22 -6 -23 -11 -25 -98 -1 -59 2 -94 9 -98 14 -9 171 -9
185 -1 14 9 14 185 1 193 -14 9 -138 11 -170 4z"/>
<path d="M441 1295 c-6 -8 -8 -158 -2 -186 0 -4 45 -6 99 -5 l97 1 3 98 c1 53
-1 98 -5 98 -46 7 -186 3 -192 -6z"/>
<path d="M679 1294 c-5 -7 -9 -52 -7 -101 l3 -88 100 0 100 0 2 98 c2 53 -1
98 -5 98 -46 8 -185 2 -193 -7z"/>
<path d="M1702 1296 c-3 -6 -7 -51 -7 -99 -1 -102 -7 -97 120 -94 l80 2 2 98
c1 68 -2 97 -10 98 -67 7 -179 4 -185 -5z"/>
<path d="M1940 1300 c-8 -5 -10 -40 -8 -101 l3 -94 97 -2 97 -1 4 26 c10 57 6
172 -6 173 -51 5 -178 4 -187 -1z"/>
<path d="M439 1068 c-7 -19 -2 -191 6 -197 5 -4 51 -7 100 -7 l90 1 0 100 0
100 -97 3 c-54 2 -98 2 -99 0z"/>
<path d="M676 1055 c-12 -31 -7 -172 7 -182 9 -7 151 -10 189 -4 4 0 6 45 5
99 l-2 97 -96 3 c-81 2 -98 0 -103 -13z"/>
<path d="M1699 1062 c-6 -30 -4 -170 2 -182 6 -13 25 -16 96 -14 48 1 91 2 94
3 4 0 6 45 5 99 l-1 97 -97 2 c-54 1 -99 -1 -99 -5z"/>
<path d="M1937 1063 c-11 -18 -5 -192 6 -195 10 -4 170 -3 188 1 4 0 6 45 5
99 l-1 97 -97 3 c-53 1 -99 -1 -101 -5z"/>
</g>
</svg>
